<svg width="63" height="65" viewBox="0 0 63 65" fill="none" xmlns="http://www.w3.org/2000/svg">
<g filter="url(#filter0_d_121_14)">
<circle cx="25.5" cy="25.5" r="25.5" fill="#A42FC1"/>
</g>
<circle cx="23.5875" cy="24.8625" r="23.5875" fill="white"/>
<g clip-path="url(#clip0_121_14)">
<path d="M31.7386 15.5227H19.7639L20.7674 13.0699C20.9808 12.5465 20.8247 11.948 20.3839 11.5944C19.9425 11.241 19.3213 11.2214 18.857 11.544L10.7487 17.1759C10.3935 17.4226 10.1873 17.8326 10.2006 18.2646C10.2139 18.6964 10.4448 19.0926 10.8145 19.3169L19.2929 24.4652C19.7753 24.7579 20.3922 24.6997 20.8107 24.3219C21.2298 23.9442 21.351 23.3297 21.1098 22.8201L19.9954 20.4626H31.7386C32.6052 20.4626 33.3101 21.1811 33.3101 22.0476V30.6365C33.3101 31.503 32.6052 32.1949 31.7386 32.1949H18.7428C17.5836 32.1949 16.6438 33.1347 16.6438 34.294V35.0357C16.6438 36.1951 17.5836 37.1349 18.7428 37.1349H31.7386C35.329 37.1349 38.2499 34.2271 38.2499 30.6365V22.0477C38.25 18.457 35.329 15.5227 31.7386 15.5227Z" fill="#A42FC1"/>
</g>
<defs>
<filter id="filter0_d_121_14" x="0" y="0" width="62.5" height="64.5" filterUnits="userSpaceOnUse" color-interpolation-filters="sRGB">
<feFlood flood-opacity="0" result="BackgroundImageFix"/>
<feColorMatrix in="SourceAlpha" type="matrix" values="0 0 0 0 0 0 0 0 0 0 0 0 0 0 0 0 0 0 127 0" result="hardAlpha"/>
<feOffset dx="6" dy="8"/>
<feGaussianBlur stdDeviation="2.75"/>
<feComposite in2="hardAlpha" operator="out"/>
<feColorMatrix type="matrix" values="0 0 0 0 0 0 0 0 0 0 0 0 0 0 0 0 0 0 0.25 0"/>
<feBlend mode="normal" in2="BackgroundImageFix" result="effect1_dropShadow_121_14"/>
<feBlend mode="normal" in="SourceGraphic" in2="effect1_dropShadow_121_14" result="shape"/>
</filter>
<clipPath id="clip0_121_14">
<rect width="28.05" height="28.05" fill="white" transform="translate(10.2 10.2)"/>
</clipPath>
</defs>
</svg>
